:FULLY-SPECIFIED
:FORCE-ALL-JOINTS-BE-3DOF
:DEGREES
1835
root 6.67231 13.9119 27.7785 -20.2946 51.5856 -22.1481
lfemur -54.3708 25.842 2.0352
ltibia 61.4419 -0 0
lfoot -1.4647 -8.85908 0.484483
ltoes -16.7686 0 0
rfemur 5.98626 -3.20952 18.1782
rtibia 48.8316 -0 0
rfoot -28.2441 -29.6913 -0.128465
rtoes -29.6118 0 0
lowerback 13.9889 3.94996 7.29586
upperback -0.387989 6.97287 4.86401
thorax -8.04697 3.22429 -0.316292
lowerneck -3.60767 12.154 4.58181
upperneck 7.23019 16.3279 -3.7084
head 3.57376 8.09589 -1.22585
lclavicle -1.47349e-14 1.59028e-14 0
lhumerus 75.2579 16.0619 111.791
lradius 1.03551 -0 0
lwrist -87.6135 180 180
lhand -35.1275 43.3599 0.164608
lfingers 7.12502 -0 0
lthumb -8.2664 73.243 0.166859
rclavicle -1.47349e-14 1.59028e-14 0
rhumerus -79.4129 7.92319 -85.4703
rradius 132.596 -0 0
rwrist -57.0839 180 180
rhand -53.3766 -64.2134 3.05393
rfingers 7.12502 -0 0
rthumb -40.0706 -108.977 -0.114403
1836
root 6.68947 13.9075 27.7853 -20.2058 51.5334 -22.2424
lfemur -54.5679 26.3317 2.00532
ltibia 62.4356 -0 0
lfoot -2.21056 -8.95007 0.440349
ltoes -17.7081 0 0
rfemur 6.01817 -3.17948 18.1191
rtibia 48.5627 -0 0
rfoot -27.9936 -29.8173 -0.120893
rtoes -29.7884 0 0
lowerback 13.9907 4.05612 7.24428
upperback -0.412407 7.11024 4.89007
thorax -8.07778 3.2923 -0.288161
lowerneck -3.49193 12.2695 4.70392
upperneck 7.15716 16.4874 -3.82526
head 3.56146 8.17612 -1.2786
lclavicle -1.47349e-14 1.59028e-14 0
lhumerus 74.5748 16.1156 111.745
lradius 1.57226 -0 0
lwrist -87.6487 180 180
lhand -34.7912 43.144 0.149355
lfingers 7.12502 -0 0
lthumb -7.94188 73.0335 0.151691
rclavicle -1.47349e-14 1.59028e-14 0
rhumerus -79.2353 8.20515 -85.4781
rradius 132.281 -0 0
rwrist -57.3115 180 180
rhand -53.4673 -62.3166 2.53422
rfingers 7.12502 -0 0
rthumb -39.2224 -106.656 -0.00623462
1837
root 6.70945 13.9026 27.7925 -20.1307 51.5131 -22.3457
lfemur -54.7487 26.8022 1.9739
ltibia 63.4226 -0 0
lfoot -2.94795 -9.02274 0.394771
ltoes -18.6381 0 0
rfemur 6.02922 -3.1723 18.0602
rtibia 48.3028 -0 0
rfoot -27.7385 -29.9372 -0.112344
rtoes -29.9489 0 0
lowerback 13.9928 4.1619 7.18837
upperback -0.436839 7.24611 4.91298
thorax -8.10903 3.35968 -0.260728
lowerneck -3.37911 12.3708 4.8149
upperneck 7.08538 16.6275 -3.9294
head 3.54929 8.24694 -1.32634
lclavicle -1.47349e-14 1.59028e-14 0
lhumerus 73.8056 16.1609 111.664
lradius 2.16565 -0 0
lwrist -87.7522 180 180
lhand -34.4469 42.923 0.133949
lfingers 7.12502 -0 0
lthumb -7.60962 72.8187 0.136311
rclavicle -1.47349e-14 1.59028e-14 0
rhumerus -78.9988 8.50025 -85.4625
rradius 131.912 -0 0
rwrist -57.3914 180 180
rhand -53.6218 -60.6487 2.05636
rfingers 7.12502 -0 0
rthumb -38.3471 -104.349 0.0828588
1838
root 6.7329 13.8972 27.8 -20.0698 51.5254 -22.458
lfemur -54.912 27.2521 1.94137
ltibia 64.4001 -0 0
lfoot -3.67482 -9.07643 0.348228
ltoes -19.5559 0 0
rfemur 6.01884 -3.18865 18.0017
rtibia 48.053 -0 0
rfoot -27.4791 -30.0506 -0.102855
rtoes -30.0925 0 0
lowerback 13.9952 4.26703 7.12816
upperback -0.461239 7.38009 4.93263
thorax -8.14066 3.42624 -0.234079
lowerneck -3.26968 12.4571 4.91409
upperneck 7.0152 16.7472 -4.02012
head 3.53732 8.30791 -1.36881
lclavicle -1.47349e-14 1.59028e-14 0
lhumerus 72.9499 16.1967 111.547
lradius 2.81578 -0 0
lwrist -87.9257 180 180
lhand -34.0953 42.6972 0.118478
lfingers 7.12502 -0 0
lthumb -7.27024 72.5988 0.120805
rclavicle -1.47349e-14 1.59028e-14 0
rhumerus -78.7022 8.80794 -85.4224
rradius 131.489 -0 0
rwrist -57.3194 180 180
rhand -53.8358 -59.2193 1.62428
rfingers 7.12502 -0 0
rthumb -37.4466 -102.062 0.151998
1839
root 6.76045 13.891 27.8078 -20.0239 51.5713 -22.5793
lfemur -55.0569 27.6795 1.90817
ltibia 65.3657 -0 0
lfoot -4.38916 -9.11049 0.301207
ltoes -20.4591 0 0
rfemur 5.9865 -3.2292 17.9435
rtibia 47.814 -0 0
rfoot -27.2161 -30.157 -0.0924699
rtoes -30.2183 0 0
lowerback 13.998 4.37123 7.06367
upperback -0.48556 7.51179 4.94885
thorax -8.17262 3.4918 -0.208299
lowerneck -3.16407 12.5279 5.00084
upperneck 6.94695 16.8457 -4.09675
head 3.52559 8.35862 -1.40575
lclavicle -1.47349e-14 1.59028e-14 0
lhumerus 72.0073 16.2216 111.395
lradius 3.5227 -0 0
lwrist -88.1706 180 180
lhand -33.7368 42.4671 0.103021
lfingers 7.12502 -0 0
lthumb -6.92435 72.3742 0.105252
rclavicle -1.47349e-14 1.59028e-14 0
rhumerus -78.3441 9.12759 -85.3566
rradius 131.012 -0 0
rwrist -57.0913 180 180
rhand -54.1052 -58.0381 1.24099
rfingers 7.12502 -0 0
rthumb -36.5232 -99.8017 0.200653
